<?xml version="1.0" encoding="UTF-8"?>
<svg version="1.1" xmlns="http://www.w3.org/2000/svg" width="512" height="512">
<path d="M0 0 C168.96 0 337.92 0 512 0 C512 168.96 512 337.92 512 512 C343.04 512 174.08 512 0 512 C0 343.04 0 174.08 0 0 Z " fill="#FEFEFE" transform="translate(0,0)"/>
<path d="M0 0 C168.96 0 337.92 0 512 0 C512 33.66 512 67.32 512 102 C343.04 102 174.08 102 0 102 C0 68.34 0 34.68 0 0 Z " fill="#7CD9FB" transform="translate(0,410)"/>
<path d="M0 0 C168.96 0 337.92 0 512 0 C512 33.66 512 67.32 512 102 C452.93 102 393.86 102 333 102 C333.33 98.7 333.66 95.4 334 92 C331.23370861 88.62131087 331.23370861 88.62131087 327.0625 88.5 C316.20510043 88.88650937 303.87563123 96.08291251 295 102 C292.73585588 102.24839699 292.73585588 102.24839699 290.02373219 102.24609566 C288.99015734 102.25007775 287.9565825 102.25405985 286.89168721 102.25816262 C285.18305038 102.24942409 285.18305038 102.24942409 283.43989563 102.24050903 C282.23268441 102.24221788 281.02547319 102.24392673 279.78167981 102.24568737 C276.42490702 102.24841794 273.068366 102.24214512 269.71162117 102.23213124 C266.09405317 102.22351185 262.47649261 102.22641583 258.85891724 102.22793579 C252.58926502 102.2289856 246.31965435 102.22269898 240.05001259 102.21146011 C230.98511668 102.19522107 221.92024092 102.18999875 212.85533204 102.18748413 C198.14890462 102.18310452 183.44249937 102.1697882 168.73608398 102.15087891 C154.4483247 102.13252699 140.16057142 102.11836712 125.87280273 102.10986328 C124.99242721 102.10933783 124.11205168 102.10881239 123.20499811 102.10827102 C118.78850903 102.10566098 114.37201991 102.10313356 109.95553076 102.10064721 C73.3036675 102.07990642 36.6518452 102.0430322 0 102 C0 68.34 0 34.68 0 0 Z " fill="#7CD9FB" transform="translate(0,0)"/>
<path d="M0 0 C1.54627671 2.31941506 2.86182828 4.52979752 4.125 7 C4.47820313 7.680625 4.83140625 8.36125 5.1953125 9.0625 C6 11 6 11 6 14 C6.66 14 7.32 14 8 14 C9.5859375 16.01171875 9.5859375 16.01171875 11.375 18.6875 C15.00692742 24.08739209 18.476126 28.83305005 23.625 32.875 C24.49253906 33.55820312 25.36007813 34.24140625 26.25390625 34.9453125 C29.76034294 37.56890525 33.3829737 39.99186453 37.06640625 42.359375 C39.23969901 44.20338098 39.65517687 45.21721682 40 48 C41.258125 48.04125 42.51625 48.0825 43.8125 48.125 C49.9861964 48.76399724 54.78779556 51.81422271 60 55 C60 55.99 60 56.98 60 58 C60.99 58.495 60.99 58.495 62 59 C62 59.66 62 60.32 62 61 C62.53625 61.2475 63.0725 61.495 63.625 61.75 C66 63 66 63 68.5625 64.75 C73.14869071 67.8785642 78.1083795 70.38881468 83 73 C83 73.66 83 74.32 83 75 C83.721875 74.938125 84.44375 74.87625 85.1875 74.8125 C88.59289116 75.03952608 90.09605681 76.24412738 93 78 C95.66532954 78.72280123 98.31141543 79.38134646 101 80 C110.46287575 82.20426038 110.46287575 82.20426038 112.6875 85.5 C113.120625 86.325 113.55375 87.15 114 88 C122.90776699 92.79648992 132.59559018 92.19234167 142.4375 92.1875 C143.11383484 92.1882251 143.79016968 92.1889502 144.48699951 92.18969727 C153.05145881 92.18868291 161.24985336 91.76389675 169.71484375 90.4375 C175.67431772 89.67904843 181.69292717 89.93710038 187.6875 90 C202.80440785 90.14316399 217.66619819 89.28113761 232.52734375 86.3671875 C236.51459302 85.77508413 239.82260073 85.31834779 243.375 87.375 C243.91125 87.91125 244.4475 88.4475 245 89 C245 89.66 245 90.32 245 91 C245.84433594 91.2578125 246.68867188 91.515625 247.55859375 91.78125 C251.2239301 93.07930328 254.61829712 94.7163283 258.0625 96.5 C261.97933018 98.51533351 265.87412928 100.44012449 270 102 C270 102.66 270 103.32 270 104 C271.99942487 104.43623815 273.99923347 104.87073844 276 105.30078125 C278.07613677 105.7846725 280.1389766 106.32801409 282.1875 106.91796875 C294.20575293 110.18543126 306.30751225 111.10195423 318.68334961 112.04858398 C319.42056747 112.10588684 320.15778534 112.1631897 320.91734314 112.222229 C322.95619538 112.37856736 324.99566531 112.5267877 327.03515625 112.67456055 C330 113 330 113 331 114 C337.68694845 114.47370475 343.96541115 114.00238145 350.48046875 112.5078125 C354.14876487 111.768466 357.82633795 111.51240443 361.5546875 111.24609375 C363.81660794 111.01845639 365.83962232 110.70415858 368 110 C370.13340733 107.35863855 369.99297102 105.86644947 369.8125 102.4375 C368.90828155 98.47441861 368.90828155 98.47441861 366 96 C362.1085476 94.0542738 358.29806579 93.5056548 354 93 C354 92.34 354 91.68 354 91 C353.030625 90.855625 352.06125 90.71125 351.0625 90.5625 C348 90 348 90 347 89 C345.39125 88.814375 345.39125 88.814375 343.75 88.625 C339.15550599 87.859251 336.50937017 86.04817373 332.75 83.4375 C330.1660013 82.08677341 328.56552782 81.70459043 325.75 81.25 C320.76323667 80.2894007 317.66569055 77.79752584 313.84765625 74.55859375 C312.07547838 72.93987419 312.07547838 72.93987419 310 72 C310.33 70.68 310.66 69.36 311 68 C312.03125 68.04125 313.0625 68.0825 314.125 68.125 C317.99543318 68.00014732 320.40064433 67.34093643 324 66 C325.16402344 65.690625 325.16402344 65.690625 326.3515625 65.375 C327.63160156 65.0346875 327.63160156 65.0346875 328.9375 64.6875 C329.73027344 64.48511719 330.52304687 64.28273438 331.33984375 64.07421875 C333.84770903 63.06149782 335.14641655 62.10064115 337.19140625 60.41015625 C341.60501258 57.13327019 345.68789282 57.46457335 351 57.75 C361.27488735 58.33329907 361.27488735 58.33329907 371 55.5 C377.5488399 52.22558005 384.84608018 52.88357093 392 53 C392 52.34 392 51.68 392 51 C393.12277344 50.89042969 394.24554688 50.78085937 395.40234375 50.66796875 C405.71404302 49.65412461 405.71404302 49.65412461 415.64453125 46.85546875 C418.81852277 45.70272556 422.0539509 44.81342787 425.3125 43.9375 C425.95799805 43.7636377 426.60349609 43.58977539 427.26855469 43.41064453 C431.285615 42.36153269 435.26817746 41.5926832 439.375 41 C443.82598555 40.32293209 447.23758487 39.12772525 451.2421875 37.1328125 C455.86536644 35.23377299 460.75401316 34.14029856 465.61767578 33.0144043 C469.62313819 32.00464916 471.55619414 31.48156141 474.43359375 28.359375 C477.77577101 25.28681021 479.79221981 25.47623386 484.19335938 25.56054688 C485.05767578 25.60244141 485.92199219 25.64433594 486.8125 25.6875 C488.13797852 25.72133789 488.13797852 25.72133789 489.49023438 25.75585938 C491.6608891 25.81452572 493.8306669 25.90420021 496 26 C496 26.66 496 27.32 496 28 C501.28 28 506.56 28 512 28 C512 66.94 512 105.88 512 146 C343.04 146 174.08 146 0 146 C0 97.82 0 49.64 0 0 Z " fill="#F6BCC7" transform="translate(0,264)"/>
<path d="M0 0 C97.02 0 194.04 0 294 0 C286.25806452 9.03225806 286.25806452 9.03225806 282 13 C281.34 13 280.68 13 280 13 C279.690625 13.804375 279.690625 13.804375 279.375 14.625 C277.46749574 17.91978009 274.95180616 20.59363628 272 23 C271.34 23 270.68 23 270 23 C269.8865625 23.74121094 269.773125 24.48242188 269.65625 25.24609375 C268.55996595 29.84657146 265.73405422 33.20395777 263 37 C262.23171875 38.0725 261.4634375 39.145 260.671875 40.25 C256.12004375 46.49410829 256.12004375 46.49410829 254 49 C253.34 49 252.68 49 252 49 C251.88527344 49.57234375 251.77054688 50.1446875 251.65234375 50.734375 C250.93817644 53.21471656 249.92692128 55.06368697 248.5625 57.25 C248.13066406 57.95640625 247.69882813 58.6628125 247.25390625 59.390625 C246.84011719 59.92171875 246.42632812 60.4528125 246 61 C245.34 61 244.68 61 244 61 C243.8453125 62.8253125 243.8453125 62.8253125 243.6875 64.6875 C242.586167 69.76496904 239.9555831 73.10404 236.6875 77 C236.2133667 77.57580811 235.7392334 78.15161621 235.25073242 78.74487305 C233.01179708 81.30338259 231.42983448 82.86828602 228.14453125 83.875 C227.43683594 83.91625 226.72914063 83.9575 226 84 C226 84.66 226 85.32 226 86 C221.20782672 88.21367488 216.66536176 89.77374288 211.4375 90.625 C210.27903564 90.81437134 210.27903564 90.81437134 209.09716797 91.00756836 C198.05261714 92.56099557 186.82776006 92.49516406 175.69311523 92.62158203 C167.58354699 92.7307572 159.80919862 93.07126994 151.80541992 94.56567383 C147.21225931 95.27677232 142.6339517 95.16715657 138 95 C138 95.66 138 96.32 138 97 C137.31413818 97.0093457 136.62827637 97.01869141 135.92163086 97.02832031 C111.80552784 97.43453656 87.79708956 99.35422389 64.3359375 105.265625 C61.41206577 105.90928763 58.97411862 106.15953127 56 106 C56 106.66 56 107.32 56 108 C54.87722656 108.25394531 53.75445312 108.50789063 52.59765625 108.76953125 C44.93931381 110.5226973 37.38286501 112.27575505 30 115 C26.23335336 116.35030729 24.04677266 117 20 117 C20 117.66 20 118.32 20 119 C19.05640625 119.34611328 19.05640625 119.34611328 18.09375 119.69921875 C12.89696913 121.67931749 8.23360637 123.87816627 3.59375 126.94921875 C2 128 2 128 0 129 C0 86.43 0 43.86 0 0 Z " fill="#F6BCC7" transform="translate(0,102)"/>
<path d="M0 0 C1.31724217 0.00460896 2.63448435 0.00921793 3.99164295 0.01396656 C4.7251621 0.00969444 5.45868125 0.00542231 6.21442825 0.00102073 C8.67942246 -0.00723422 11.14272583 0.02031442 13.60756397 0.04761219 C15.37153044 0.04902213 17.13549985 0.04823174 18.89946461 0.04539967 C23.69484431 0.04396199 28.48960176 0.07340844 33.28483653 0.10826945 C38.29365101 0.13947458 43.30247893 0.14245907 48.31137562 0.14839649 C57.7993513 0.16395215 67.28703975 0.20500391 76.77488881 0.25514394 C89.59371099 0.32142002 102.41261142 0.34845801 115.23156166 0.37765503 C135.43303875 0.42470457 155.63390964 0.52430539 175.83534718 0.61523914 C175.83534718 51.43523914 175.83534718 102.25523914 175.83534718 154.61523914 C169.77920012 152.59652346 168.97781424 151.85185319 164.83534718 147.61523914 C162.20948591 145.73788995 159.54302859 143.94102647 156.84706593 142.16602039 C156.18319874 141.65426258 155.51933155 141.14250477 154.83534718 140.61523914 C154.83534718 139.95523914 154.83534718 139.29523914 154.83534718 138.61523914 C154.21659718 138.55336414 153.59784718 138.49148914 152.96034718 138.42773914 C152.25909718 138.15961414 151.55784718 137.89148914 150.83534718 137.61523914 C150.13322824 135.96319459 149.46563304 134.29600146 148.83534718 132.61523914 C147.84534718 132.28523914 146.85534718 131.95523914 145.83534718 131.61523914 C144.8998003 129.79272938 144.8998003 129.79272938 144.11659718 127.42383289 C143.82397999 126.56080555 143.5313628 125.69777821 143.22987843 124.80859852 C142.93468311 123.89916492 142.6394878 122.98973133 142.33534718 122.05273914 C141.7423892 120.28033856 141.1486482 118.50819973 140.55409718 116.73633289 C140.12568531 115.43695789 140.12568531 115.43695789 139.68861866 114.11133289 C138.9054584 111.82033704 138.04580773 109.57951818 137.15175343 107.33008289 C135.94979747 103.93821311 135.42935535 101.30458654 135.27284718 97.74023914 C135.24056159 93.6886732 135.24056159 93.6886732 132.83534718 90.61523914 C132.18118535 88.5470594 131.58488647 86.4603303 131.02284718 84.36523914 C129.41893663 78.88773333 127.77384386 75.66313852 123.83534718 71.61523914 C123.83534718 70.95523914 123.83534718 70.29523914 123.83534718 69.61523914 C120.53534718 69.61523914 117.23534718 69.61523914 113.83534718 69.61523914 C113.83534718 70.27523914 113.83534718 70.93523914 113.83534718 71.61523914 C113.17534718 71.61523914 112.51534718 71.61523914 111.83534718 71.61523914 C111.09340996 74.30599813 110.35736582 76.99801889 109.63222218 79.69336414 C109.02326645 81.9262018 108.37538163 84.14845764 107.71034718 86.36523914 C106.17169653 92.64806261 106.11283852 99.18131192 105.83534718 105.61523914 C105.73673389 107.21818836 105.73673389 107.21818836 105.63612843 108.85352039 C105.24759395 119.8262698 107.45712984 130.4347067 109.46815968 141.18018055 C109.83534718 143.61523914 109.83534718 143.61523914 109.83534718 147.61523914 C98.49202442 148.09528572 89.41538392 146.93398678 79.83534718 140.61523914 C78.58286216 138.11026911 78.72160311 136.4067064 78.73769093 133.60742664 C78.74252491 132.12822742 78.74252491 132.12822742 78.74745655 130.61914539 C78.76002491 129.0703368 78.76002491 129.0703368 78.77284718 127.49023914 C78.77735889 126.44996571 78.78187061 125.40969227 78.78651905 124.33789539 C78.79832766 121.76361953 78.81479643 119.18945768 78.83534718 116.61523914 C76.10518799 115.09651423 74.93377035 114.61327068 71.71034718 114.67773914 C70.28722218 115.14180164 70.28722218 115.14180164 68.83534718 115.61523914 C67.62237068 117.89590985 67.62237068 117.89590985 66.83534718 120.61523914 C64.16280485 124.30150442 61.09197559 127.44211402 57.83534718 130.61523914 C57.34034718 131.17211414 56.84534718 131.72898914 56.33534718 132.30273914 C53.56455989 134.72717802 50.80991046 135.63928497 47.14394093 135.54883289 C40.60750939 134.41940867 34.91538748 132.6104933 28.85878468 129.91602039 C23.96453738 127.81035586 18.90444803 126.2410432 13.83534718 124.61523914 C11.83464873 123.95067148 9.83446085 123.28455891 7.83534718 122.61523914 C7.83534718 121.95523914 7.83534718 121.29523914 7.83534718 120.61523914 C5.85534718 120.28523914 3.87534718 119.95523914 1.83534718 119.61523914 C1.83534718 118.95523914 1.83534718 118.29523914 1.83534718 117.61523914 C1.09800343 117.50309071 0.36065968 117.39094227 -0.39902782 117.27539539 C-5.02795556 116.17046773 -8.37985913 113.40790245 -12.16465282 110.61523914 C-12.98191845 110.04805164 -13.79918407 109.48086414 -14.64121532 108.89648914 C-21.64846842 103.50980598 -22.81749346 98.1071544 -24.16465282 89.61523914 C-24.49465282 88.95523914 -24.82465282 88.29523914 -25.16465282 87.61523914 C-25.52382664 82.76639262 -25.0666994 78.86669299 -23.78965282 74.17773914 C-22.4810841 69.30423787 -21.69684231 64.49982428 -21.16465282 59.49023914 C-20.49918927 53.3170325 -19.712205 47.18379573 -18.72715282 41.05273914 C-18.61693798 40.32748035 -18.50672314 39.60222157 -18.39316845 38.85498524 C-17.5595747 33.80336056 -16.0468229 29.3763199 -14.16465282 24.61523914 C-13.89652782 23.54273914 -13.62840282 22.47023914 -13.35215282 21.36523914 C-11.59179534 15.80621552 -8.91244292 10.74724406 -6.16465282 5.61523914 C-5.78558883 4.74350465 -5.40652483 3.87177015 -5.01597404 2.97361946 C-3.16465282 0.61523914 -3.16465282 0.61523914 0 0 Z " fill="#F6BCC7" transform="translate(336.16465282440186,101.38476085662842)"/>
</svg>
